# xmcd
#
# Track frame offsets:
#        150
#        15211
#        29017
#        46153
#        63704
#        77930
#        95076
#        106285
#        122468
#        138437
#        157448
#        177473
#
# Disc length: 2528 seconds
#
# Revision: 0
# Processed by: cddbd v1.5.1PL0 Copyright (c) Steve Scherf et al.
# Submitted via: ExactAudioCopy v0.95a5
#
DISCID=a509de0c
DTITLE=`Elua - Paddle to the Rising Sun
DYEAR=2000
DGENRE=Hawaiian
TTITLE0=Paddle To The Rising Sun
TTITLE1=On A Coconut Island
TTITLE2=Ho`i Mai Huli Ho`i Mai
TTITLE3=Medley: Panini Puakea and Green Rose
TTITLE4=Halekulani
TTITLE5=Maybe
TTITLE6=E Hihiwai
TTITLE7=Down By The Shack, By The Sea
TTITLE8=Pipi Kaula
TTITLE9=The Morning Sunrise
TTITLE10=The Snows Of Mauna Kea
TTITLE11=Aloha `Oe A Hui Hou
EXTD=
EXTT0=
EXTT1=
EXTT2=
EXTT3=
EXTT4=
EXTT5=
EXTT6=
EXTT7=
EXTT8=
EXTT9=
EXTT10=
EXTT11=
PLAYORDER=
